<svg width="80" height="54" viewBox="0 0 80 54" fill="none" xmlns="http://www.w3.org/2000/svg">
<g clip-path="url(#clip0_2_288)">
<path fill-rule="evenodd" clip-rule="evenodd" d="M39.8428 3.95418V4.09369C41.3325 4.47733 45.2835 7.7856 46.3447 9.18564C46.7981 9.77853 47.3063 10.2817 47.69 10.78C48.542 11.891 50.5947 14.9851 50.8388 16.136C50.8039 16.146 50.4352 16.2157 50.4253 16.2207C49.952 16.4001 50.2359 16.2705 50.0117 16.4499C51.4865 16.3203 52.473 16.0762 54.1222 16.141C57.565 16.2705 60.928 17.4812 63.5786 19.3297C65.3274 20.5503 66.6478 21.8707 67.8983 23.5896C68.7304 24.7405 70.3995 27.6751 70.5639 29.384C70.9525 33.4147 65.8755 35.1187 63.6285 31.9699C62.8163 30.8289 61.8149 24.9497 54.7998 23.8785C53.8382 23.7291 52.8915 23.7241 51.915 23.8636C49.9071 24.3768 52.3534 23.6444 53.0011 23.7689C53.6339 29.9769 52.2687 35.8262 49.7128 40.1309C49.1 41.1623 48.4921 42.1239 47.7597 43.1104C47.1569 43.9225 46.2202 44.9887 45.4678 45.746C44.7753 46.4485 43.5945 47.5098 42.8372 48.0628C42.1197 48.5859 40.8791 49.702 39.8328 49.8664V50.0408C40.4257 50.1155 42.1098 51.097 42.887 51.4259C60.5494 58.9343 79.9307 45.9503 79.9506 27.0224C79.9755 7.83044 60.4497 -4.82968 42.9219 2.53422C42.1845 2.84312 40.3759 3.88443 39.8428 3.95418Z" fill="#32A6FD"/>
<path fill-rule="evenodd" clip-rule="evenodd" d="M39.8329 50.0408V49.8664C39.24 49.4828 38.383 48.9447 37.7253 48.4713C36.983 47.9382 36.3103 47.3702 35.6427 46.8023C34.4071 45.746 33.1017 44.2662 32.0654 42.8911L31.891 42.7666C30.2518 43.5388 26.8638 43.6933 24.7314 43.484C18.5334 42.8812 12.9631 38.8106 10.4072 33.1407C9.45057 31.0182 8.81781 28.6865 10.7061 27.0872C12.5695 25.5078 15.0906 25.9611 16.3461 27.6651C17.1881 28.816 17.1433 30.6595 19.3604 32.8766C20.2274 33.7436 22.9826 35.8909 24.8958 35.8112C26.1713 35.8013 26.9236 35.8262 28.234 35.7016C27.2325 32.209 26.6446 29.7228 26.8389 25.6124C27.2724 16.2854 32.2049 8.97138 39.8428 4.09367V3.95417C38.9709 3.17194 35.2092 1.78187 33.8092 1.39325C26.4055 -0.654495 18.6131 0.611018 12.5147 4.4524C-4.0715 14.8954 -4.13128 39.0198 12.4898 49.5027C16.0821 51.7696 20.5961 53.4039 25.9172 53.5732C30.8945 53.7277 36.6093 52.1433 39.8329 50.0408Z" fill="#01E4FD"/>
<path fill-rule="evenodd" clip-rule="evenodd" d="M28.2341 35.7016C30.1075 35.7415 32.2549 34.3514 33.2812 33.4446C35.4735 31.5065 35.5332 30.7043 36.2656 29.0203C38.0942 22.8123 43.1761 17.7602 50.0119 16.4499C50.2361 16.2705 49.9521 16.4001 50.4254 16.2207C50.4354 16.2157 50.8041 16.146 50.839 16.136C50.5948 14.9851 48.5421 11.891 47.6901 10.78C47.3065 10.2818 46.7983 9.77853 46.3449 9.18564C45.2837 7.7856 41.3327 4.47733 39.843 4.09369C32.205 8.9714 27.2725 16.2855 26.8391 25.6124C26.6448 29.7228 27.2327 32.209 28.2341 35.7016Z" fill="#01A1FC"/>
<path fill-rule="evenodd" clip-rule="evenodd" d="M50.0117 16.4499C43.7539 17.6506 38.9659 21.9853 36.7986 27.4758C35.8968 29.7627 36.0014 32.3037 38.6371 33.345C39.4791 33.6788 40.5553 33.6788 41.4222 33.355C43.5347 32.5578 43.5347 30.8638 44.4614 29.115C44.9397 28.2082 45.4529 27.5306 46.1056 26.8779C47.9889 24.9747 49.658 24.4864 51.9548 23.8985C52.9364 23.759 53.8382 23.7291 54.7998 23.8786C61.8149 24.9498 62.8163 30.8289 63.6285 31.9699C65.8755 35.1187 70.9525 33.4147 70.5639 29.384C70.3995 27.6751 68.7304 24.7405 67.8983 23.5896C66.6478 21.8707 65.3274 20.5504 63.5786 19.3297C60.928 17.4812 57.565 16.2705 54.1222 16.141C52.473 16.0762 51.4865 16.3203 50.0117 16.4499Z" fill="white"/>
<path fill-rule="evenodd" clip-rule="evenodd" d="M49.8775 24.3618C48.4176 24.8999 46.7336 26.2402 46.1058 26.8779C45.4531 27.5306 44.94 28.2082 44.4617 29.115C44.1528 29.6929 43.4552 31.2973 43.3805 31.8652C43.3257 32.508 41.836 35.1187 41.4573 35.6369C39.0658 38.9202 36.7191 41.0028 32.8827 42.4577C32.245 42.7018 32.524 42.4826 32.0656 42.8911C33.1019 44.2663 34.4073 45.746 35.6429 46.8023C36.3106 47.3703 36.9832 47.9383 37.7255 48.4714C38.3832 48.9447 39.2402 49.4828 39.8331 49.8664C40.8794 49.702 42.12 48.586 42.8374 48.0628C43.5947 47.5098 44.7756 46.4485 45.4681 45.746C46.2204 44.9887 47.1571 43.9225 47.76 43.1104C48.4924 42.1239 49.1002 41.1623 49.713 40.1309C52.269 35.8262 53.6341 29.9769 53.0014 23.7689C52.6028 23.6892 50.3857 24.1775 49.8775 24.3618Z" fill="#01A1FC"/>
<path fill-rule="evenodd" clip-rule="evenodd" d="M31.8909 42.7666C31.6767 42.2683 31.1436 41.6107 30.8496 41.1274C29.1407 38.3323 29.0061 37.0817 28.2339 35.7016C25.8722 35.8062 23.0622 36.2596 19.3603 32.8766C17.1432 30.6595 17.188 28.816 16.346 27.6651C15.0905 25.9611 12.5694 25.5078 10.706 27.0872C8.81771 28.6865 9.45047 31.0182 10.4071 33.1407C12.963 38.8106 18.5333 42.8812 24.7313 43.484C26.8637 43.6933 30.2517 43.5388 31.8909 42.7666Z" fill="white"/>
<path fill-rule="evenodd" clip-rule="evenodd" d="M28.2341 35.7016C28.3088 35.7564 28.2689 35.9258 28.2689 35.9258C29.0412 37.3059 29.1409 38.3323 30.8498 41.1274C31.1438 41.6107 31.6769 42.2683 31.8911 42.7666L32.0655 42.8911C32.5239 42.4826 32.2449 42.7018 32.8826 42.4577C36.719 41.0028 39.0657 38.9202 41.4572 35.6368C41.8358 35.1187 43.485 32.4382 43.5398 31.2723C43.1462 32.0047 42.7277 32.8617 41.4223 33.3549C40.5554 33.6788 39.4792 33.6788 38.6372 33.345C36.993 32.6923 35.8222 30.3904 36.5745 28.0687C35.8172 29.6082 36.0115 30.8488 33.2812 33.4446C32.2548 34.3514 30.1074 35.7415 28.2341 35.7016Z" fill="#32A6FD"/>
</g>
<defs>
<clipPath id="clip0_2_288">
<rect width="80" height="53.1765" fill="white" transform="translate(0 0.411743)"/>
</clipPath>
</defs>
</svg>
